<?xml version="1.0" encoding="utf-8"?>
<!-- Generator: Adobe Illustrator 27.0.1, SVG Export Plug-In . SVG Version: 6.00 Build 0)  -->
<svg version="1.1" id="Calque_1" xmlns="http://www.w3.org/2000/svg" xmlns:xlink="http://www.w3.org/1999/xlink" x="0px" y="0px"
	 viewBox="0 0 250 70" style="enable-background:new 0 0 250 70;" xml:space="preserve">
<style type="text/css">
	.st0{fill:#131724;}
	.st1{fill:#F86C6D;}
	.st2{fill:#FFFFFF;}
	.st3{fill:none;stroke:#FFFFFF;stroke-miterlimit:10;}
</style>
<rect y="-1" class="st0" width="252" height="71"/>
<g>
	<g>
		<path class="st1" d="M72.46,33.27h-7.48l-5.92-20.04l-5.96,20.04h-7.48L40.07,4.71H47l3.36,19.7l5.59-19.7h6.18l5.59,19.7
			l3.36-19.7H78L72.46,33.27z"/>
		<path class="st1" d="M80.73,33.27V4.71h6.3v28.56H80.73z"/>
		<path class="st1" d="M92.07,4.71h6.3v22.85h10.25v5.71H92.07V4.71z"/>
		<path class="st1" d="M121.09,4.71c8.07,0,14.2,6.22,14.2,14.28s-6.09,14.28-14.2,14.28h-8.49V4.71H121.09z M120.71,27.47
			c4.83,0,8.15-3.74,8.15-8.49c0-4.75-3.28-8.44-8.15-8.44h-1.89v16.93H120.71z"/>
	</g>
</g>
<g>
	<path class="st1" d="M46.37,54.15v11.47h-6.3V37.06h16.55v5.71H46.37v5.67h9.83v5.71H46.37z"/>
	<path class="st1" d="M74.89,66.04c-7.9,0-14.7-6.8-14.7-14.7c0-7.9,6.81-14.7,14.7-14.7s14.7,6.81,14.7,14.7
		C89.59,59.24,82.79,66.04,74.89,66.04z M74.89,42.89c-4.41,0-8.4,3.99-8.4,8.4c0,4.41,3.99,8.44,8.4,8.44c4.41,0,8.4-4.03,8.4-8.44
		C83.29,46.89,79.3,42.89,74.89,42.89z"/>
	<path class="st1" d="M107.23,66.04c-7.9,0-14.7-6.8-14.7-14.7c0-7.9,6.8-14.7,14.7-14.7s14.7,6.81,14.7,14.7
		C121.93,59.24,115.13,66.04,107.23,66.04z M107.23,42.89c-4.41,0-8.4,3.99-8.4,8.4c0,4.41,3.99,8.44,8.4,8.44
		c4.41,0,8.4-4.03,8.4-8.44C115.63,46.89,111.64,42.89,107.23,42.89z"/>
	<path class="st1" d="M138.06,65.62h-6.3V42.77h-8.15v-5.71h22.6v5.71h-8.15V65.62z"/>
	<path class="st1" d="M160.49,65.62h-11.55V37.06h9.83c4.87,0,7.98,3.23,7.98,7.14c0,2.9-1.26,5.08-3.4,6.05
		c3.19,0.76,5.8,3.32,5.8,7.18C169.14,62.34,165.95,65.62,160.49,65.62z M157.42,42.01h-2.18v6.64h2.18c1.81,0,3.32-1.51,3.32-3.32
		C160.74,43.48,159.23,42.01,157.42,42.01z M159.23,53.82h-3.99v6.89h3.99c1.89,0,3.49-1.55,3.49-3.44
		C162.71,55.41,161.12,53.82,159.23,53.82z"/>
	<path class="st1" d="M191.52,65.62l-2.06-5.75h-10.88l-2.06,5.75h-6.76l11.59-28.56h5.33l11.59,28.56H191.52z M184.01,44.53
		l-3.61,10.17h7.23L184.01,44.53z"/>
	<path class="st1" d="M201.01,37.06h6.3v22.85h10.25v5.71h-16.55V37.06z"/>
	<path class="st1" d="M221.55,37.06h6.3v22.85h10.25v5.71h-16.55V37.06z"/>
</g>
<g>
	<g>
		<path class="st2" d="M37.54,57.21l-9.75,5.38h9.75v3.45H21.91v-3.45l9.75-5.38h-9.75v-3.45h15.64V57.21z"/>
		<path class="st2" d="M37.54,41.94V51H21.91v-9.06h3.13v5.61h3.1v-5.38h3.13v5.38h3.15v-5.61H37.54z"/>
		<path class="st2" d="M37.54,22.71v4.09l-10.97,3.24l10.97,3.27v4.09l-15.64,3.04v-3.79l10.79-1.84l-10.79-3.06v-3.38l10.79-3.06
			l-10.79-1.84v-3.79L37.54,22.71z"/>
		<path class="st2" d="M33.27,9.33c-3.04,0-1.08,9.04-6.85,9.04c-3.22,0-4.74-2.99-4.74-5.84c0-3.22,1.43-6.12,4.99-6.23v3.33
			c-1.63,0.18-2.16,1.13-2.16,2.85c0,0.97,0.46,2.32,1.63,2.32c2.78,0,0.78-9.04,6.74-9.04c3.68,0,5.04,3.29,5.04,6.48
			c0,3.45-1.7,6.6-5.52,6.62v-3.5c1.86-0.09,2.71-1.56,2.71-3.26C35.11,11.03,34.67,9.33,33.27,9.33z"/>
	</g>
</g>
</svg>
